<?xml version="1.0" encoding="UTF-8" standalone="no"?>
<!-- Uploaded to: SVG Repo, www.svgrepo.com, Generator: SVG Repo Mixer Tools -->

<svg
   width="800px"
   height="800px"
   viewBox="0 0 24 24"
   fill="none"
   version="1.1"
   id="svg250"
   sodipodi:docname="delete.svg"
   inkscape:version="1.2 (dc2aeda, 2022-05-15)"
   xmlns:inkscape="http://www.inkscape.org/namespaces/inkscape"
   xmlns:sodipodi="http://sodipodi.sourceforge.net/DTD/sodipodi-0.dtd"
   xmlns="http://www.w3.org/2000/svg"
   xmlns:svg="http://www.w3.org/2000/svg">
  <defs
     id="defs254" />
  <sodipodi:namedview
     id="namedview252"
     pagecolor="#ffffff"
     bordercolor="#000000"
     borderopacity="0.25"
     inkscape:showpageshadow="2"
     inkscape:pageopacity="0.0"
     inkscape:pagecheckerboard="0"
     inkscape:deskcolor="#d1d1d1"
     showgrid="false"
     inkscape:zoom="0.6175"
     inkscape:cx="400.80972"
     inkscape:cy="400"
     inkscape:window-width="1366"
     inkscape:window-height="700"
     inkscape:window-x="0"
     inkscape:window-y="0"
     inkscape:window-maximized="1"
     inkscape:current-layer="svg250" />
  <path
     d="M20.5001 6H3.5"
     stroke="#323232"
     stroke-width="1.5"
     stroke-linecap="round"
     id="path244"
     style="stroke-width:2.00001;stroke-dasharray:none" />
  <path
     d="M18.8332 8.5L18.3732 15.3991C18.1962 18.054 18.1077 19.3815 17.2427 20.1907C16.3777 21 15.0473 21 12.3865 21H11.6132C8.95235 21 7.62195 21 6.75694 20.1907C5.89194 19.3815 5.80344 18.054 5.62644 15.3991L5.1665 8.5"
     stroke="#323232"
     stroke-width="1.5"
     stroke-linecap="round"
     id="path246"
     style="stroke-width:2.00001;stroke-dasharray:none" />
  <path
     d="M6.5 6C6.55588 6 6.58382 6 6.60915 5.99936C7.43259 5.97849 8.15902 5.45491 8.43922 4.68032C8.44784 4.65649 8.45667 4.62999 8.47434 4.57697L8.57143 4.28571C8.65431 4.03708 8.69575 3.91276 8.75071 3.8072C8.97001 3.38607 9.37574 3.09364 9.84461 3.01877C9.96213 3 10.0932 3 10.3553 3H13.6447C13.9068 3 14.0379 3 14.1554 3.01877C14.6243 3.09364 15.03 3.38607 15.2493 3.8072C15.3043 3.91276 15.3457 4.03708 15.4286 4.28571L15.5257 4.57697C15.5433 4.62992 15.5522 4.65651 15.5608 4.68032C15.841 5.45491 16.5674 5.97849 17.3909 5.99936C17.4162 6 17.4441 6 17.5 6"
     stroke="#323232"
     stroke-width="1.5"
     id="path248"
     style="stroke-width:2.00001;stroke-dasharray:none" />
</svg>
