<?xml version="1.0" encoding="UTF-8" standalone="no"?>
<!-- Uploaded to: SVG Repo, www.svgrepo.com, Generator: SVG Repo Mixer Tools -->

<svg
   width="800px"
   height="800px"
   viewBox="0 0 24 24"
   fill="none"
   version="1.1"
   id="svg2447"
   sodipodi:docname="refresh.svg"
   inkscape:version="1.2 (dc2aeda, 2022-05-15)"
   xmlns:inkscape="http://www.inkscape.org/namespaces/inkscape"
   xmlns:sodipodi="http://sodipodi.sourceforge.net/DTD/sodipodi-0.dtd"
   xmlns="http://www.w3.org/2000/svg"
   xmlns:svg="http://www.w3.org/2000/svg">
  <defs
     id="defs2451" />
  <sodipodi:namedview
     id="namedview2449"
     pagecolor="#ffffff"
     bordercolor="#000000"
     borderopacity="0.25"
     inkscape:showpageshadow="2"
     inkscape:pageopacity="0.0"
     inkscape:pagecheckerboard="0"
     inkscape:deskcolor="#d1d1d1"
     showgrid="false"
     inkscape:zoom="0.59125"
     inkscape:cx="401.69133"
     inkscape:cy="400.84567"
     inkscape:window-width="1366"
     inkscape:window-height="700"
     inkscape:window-x="0"
     inkscape:window-y="0"
     inkscape:window-maximized="1"
     inkscape:current-layer="svg2447" />
  <path
     fill-rule="evenodd"
     clip-rule="evenodd"
     d="M13.7071 1.29289C14.0976 1.68342 14.0976 2.31658 13.7071 2.70711L12.4053 4.00896C17.1877 4.22089 21 8.16524 21 13C21 17.9706 16.9706 22 12 22C7.02944 22 3 17.9706 3 13C3 12.4477 3.44772 12 4 12C4.55228 12 5 12.4477 5 13C5 16.866 8.13401 20 12 20C15.866 20 19 16.866 19 13C19 9.2774 16.0942 6.23349 12.427 6.01281L13.7071 7.29289C14.0976 7.68342 14.0976 8.31658 13.7071 8.70711C13.3166 9.09763 12.6834 9.09763 12.2929 8.70711L9.29289 5.70711C9.10536 5.51957 9 5.26522 9 5C9 4.73478 9.10536 4.48043 9.29289 4.29289L12.2929 1.29289C12.6834 0.902369 13.3166 0.902369 13.7071 1.29289Z"
     fill="#6272a4"
     id="path2445"
     style="stroke-width:2.00001;stroke-dasharray:none" />
</svg>
